. 
  
http://www.torrentday.com/        :     The Hottest Private Tracker On The Net!!!
 
http://www.torrentday.com          :     Once & For all ;)


               www . TorrentDay . Com 

(((((((((((((= Enjoy No RAR releases =))))))))))))))))))))


...................................NFO:....................................

.[img]http://img262.imageshack.us/img262/2758/mrnicemovieposter102066.jpg[/img]

[color=red][size=4][b]Mr.Nice.2010.DVDRiP.XViD.AC3.NiTR0[/b][/size][/color]

Source: R2 PAL
Genre: Drama/romance
IMDB: http://www.imdb.com/title/tt1183911/
Rating IMDB: 6.6/10 (328 votes)
Language: English
Subtitles: None
RunTime: 116min

[color=red][size=3][b]General[/b][/size][/color]
Complete name                    : Mr.Nice.2010.DVDRiP.XViD.AC3.NiTR0.avi
Format                           : AVI
Format/Info                      : Audio Video Interleave
Format profile                   : OpenDML
Format settings                  : rec
File size                        : 1.37 GiB
Duration                         : 1h 55mn
Overall bit rate                 : 1 688 Kbps

[color=red][size=3][b]Video[/b][/size][/color]
Format                           : MPEG-4 Visual
Format profile                   : Advanced Simple@L5
Format settings, BVOP            : 2
Format settings, QPel            : No
Format settings, GMC             : No warppoints
Format settings, Matrix          : Default (H.263)
Muxing mode                      : Packed bitstream
Codec ID                         : XVID
Duration                         : 1h 55mn
Bit rate                         : 1 234 Kbps
Width                            : 720 pixels
Height                           : 384 pixels
Display aspect ratio             : 1.875
Frame rate                       : 25.000 fps
Scan type                        : Progressive
Stream size                      : 1 024 MiB (73%)

[color=red][size=3][b]Audio[/b][/size][/color]
Format                           : AC-3
Format/Info                      : Audio Coding 3
Mode extension                   : CM (complete main)
Duration                         : 1h 55mn
Bit rate mode                    : Constant
Bit rate                         : 448 Kbps
Channel(s)                       : 6 channels
Channel positions                : Front: L C R, Side: L R, LFE
Sampling rate                    : 48.0 KHz
Bit depth                        : 16 bits
Stream size                      : 372 MiB (27%)

[color=red][size=3][b]Plot:[/b][/size][/color]
The life story of Howard Marks, an elite British drug smuggler.

[color=red][size=3][b]Group Notes:[/b][/size][/color]
Special thanks to HiTM4N

[color=red][size=3][b]Screens:[/b][/size][/color]

[img]http://img262.imageshack.us/img262/5808/70774213.png[/img]
[img]http://img262.imageshack.us/img262/1470/31280429.png[/img]